<?xml version="1.0" encoding="UTF-8"?>
<svg data-bbox="16.944 0.726 965.874 998.06" viewBox="0 0 1000 1000" xmlns="http://www.w3.org/2000/svg" data-type="ugc">
    <g transform="translate(-228.821 -169.263) scale(6.24959)">
        <path d="m192 102.6-75.4-75.4-75.4 75.4c-2.5 2.5-2.5 6.5 0 8.9l75.4 75.4 75.4-75.4c2.5-2.4 2.5-6.4 0-8.9zm-75.4 28.1L93 107.1l23.6-23.6 23.6 23.6-23.6 23.6z" fill="#4b7bbe"/>
        <linearGradient gradientTransform="matrix(6.2496 0 0 -6.2496 -229.661 1170.423)" y2="144.774" x2="21.758" y1="177.748" x1="54.732" gradientUnits="userSpaceOnUse" id="075b3ea9-293f-4e57-9834-da9beabd16d9">
            <stop offset=".18" stop-color="#325ba9"/>
            <stop offset="1" stop-color="#4b7bbe"/>
        </linearGradient>
        <path d="M116.6 83.6c-15.5-15.5-15.5-40.5-.2-56.1L64.6 79.1l28.1 28.1 23.9-23.6z" fill="url(#075b3ea9-293f-4e57-9834-da9beabd16d9)"/>
        <linearGradient gradientTransform="matrix(6.2496 0 0 -6.2496 -229.661 1170.423)" y2="195.5" x2="89.042" y1="162.588" x1="56.13" gradientUnits="userSpaceOnUse" id="3945b715-9e9d-40bf-855d-be423d7ec2bb">
            <stop offset=".18" stop-color="#325ba9"/>
            <stop offset="1" stop-color="#4b7bbe"/>
        </linearGradient>
        <path d="m140.3 107-23.7 23.7c15.5 15.5 15.5 40.7 0 56.2l51.8-51.8-28.1-28.1z" fill="url(#3945b715-9e9d-40bf-855d-be423d7ec2bb)"/>
    </g>
</svg>
